<mxfile host="app.diagrams.net" modified="2021-11-25T11:03:01.774Z" agent="5.0 (Macintosh; Intel Mac OS X 10_15_7) AppleWebKit/537.36 (KHTML, like Gecko) Chrome/96.0.4664.55 Safari/537.36" etag="R4JI0B1sAu8eLIva8YZQ" version="15.8.5" type="github">
  <diagram id="xMNmc3t4gYZdDHv4A9BS" name="Page-1">
    <mxGraphModel dx="3126" dy="684" grid="1" gridSize="10" guides="1" tooltips="1" connect="1" arrows="1" fold="1" page="1" pageScale="1" pageWidth="850" pageHeight="1100" math="0" shadow="0">
      <root>
        <mxCell id="0" />
        <mxCell id="1" parent="0" />
        <mxCell id="aXW1kXHaIHh5erUut1oJ-1" value="Permissions" style="rounded=0;whiteSpace=wrap;html=1;" vertex="1" parent="1">
          <mxGeometry x="-1450" y="340" width="120" height="60" as="geometry" />
        </mxCell>
        <mxCell id="aXW1kXHaIHh5erUut1oJ-2" value="has" style="edgeStyle=orthogonalEdgeStyle;rounded=0;orthogonalLoop=1;jettySize=auto;html=1;entryX=0.5;entryY=0;entryDx=0;entryDy=0;endArrow=diamondThin;endFill=1;sketch=0;verticalAlign=top;" edge="1" parent="1" source="aXW1kXHaIHh5erUut1oJ-4" target="aXW1kXHaIHh5erUut1oJ-1">
          <mxGeometry relative="1" as="geometry" />
        </mxCell>
        <mxCell id="aXW1kXHaIHh5erUut1oJ-3" value="Belong" style="edgeStyle=orthogonalEdgeStyle;rounded=0;sketch=0;orthogonalLoop=1;jettySize=auto;html=1;entryX=0;entryY=0.5;entryDx=0;entryDy=0;endArrow=classic;endFill=1;verticalAlign=top;" edge="1" parent="1" source="aXW1kXHaIHh5erUut1oJ-4" target="aXW1kXHaIHh5erUut1oJ-6">
          <mxGeometry relative="1" as="geometry" />
        </mxCell>
        <mxCell id="aXW1kXHaIHh5erUut1oJ-4" value="Profile" style="rounded=0;whiteSpace=wrap;html=1;" vertex="1" parent="1">
          <mxGeometry x="-1450" y="190" width="120" height="60" as="geometry" />
        </mxCell>
        <mxCell id="aXW1kXHaIHh5erUut1oJ-5" value="has" style="edgeStyle=orthogonalEdgeStyle;rounded=0;sketch=0;orthogonalLoop=1;jettySize=auto;html=1;entryX=0.5;entryY=0;entryDx=0;entryDy=0;endArrow=diamondThin;endFill=1;verticalAlign=top;" edge="1" parent="1" source="aXW1kXHaIHh5erUut1oJ-6" target="aXW1kXHaIHh5erUut1oJ-7">
          <mxGeometry relative="1" as="geometry" />
        </mxCell>
        <mxCell id="aXW1kXHaIHh5erUut1oJ-6" value="Decentralised Autonomous&lt;br&gt;Organization &lt;br&gt;(DAO)" style="rounded=0;whiteSpace=wrap;html=1;" vertex="1" parent="1">
          <mxGeometry x="-1205" y="190" width="120" height="60" as="geometry" />
        </mxCell>
        <mxCell id="aXW1kXHaIHh5erUut1oJ-7" value="Tasks" style="rounded=0;whiteSpace=wrap;html=1;" vertex="1" parent="1">
          <mxGeometry x="-1205" y="340" width="120" height="60" as="geometry" />
        </mxCell>
        <mxCell id="aXW1kXHaIHh5erUut1oJ-8" value="create" style="edgeStyle=orthogonalEdgeStyle;rounded=0;sketch=0;orthogonalLoop=1;jettySize=auto;html=1;entryX=0;entryY=0.5;entryDx=0;entryDy=0;endArrow=classic;endFill=1;verticalAlign=top;" edge="1" parent="1" source="aXW1kXHaIHh5erUut1oJ-11" target="aXW1kXHaIHh5erUut1oJ-4">
          <mxGeometry relative="1" as="geometry" />
        </mxCell>
        <mxCell id="aXW1kXHaIHh5erUut1oJ-9" style="edgeStyle=orthogonalEdgeStyle;rounded=0;orthogonalLoop=1;jettySize=auto;html=1;entryX=0.5;entryY=1;entryDx=0;entryDy=0;" edge="1" parent="1" source="aXW1kXHaIHh5erUut1oJ-11" target="aXW1kXHaIHh5erUut1oJ-7">
          <mxGeometry relative="1" as="geometry">
            <Array as="points">
              <mxPoint x="-1575" y="420" />
              <mxPoint x="-1145" y="420" />
            </Array>
          </mxGeometry>
        </mxCell>
        <mxCell id="aXW1kXHaIHh5erUut1oJ-10" value="creates/completes" style="edgeLabel;html=1;align=center;verticalAlign=middle;resizable=0;points=[];" vertex="1" connectable="0" parent="aXW1kXHaIHh5erUut1oJ-9">
          <mxGeometry x="0.1323" y="1" relative="1" as="geometry">
            <mxPoint as="offset" />
          </mxGeometry>
        </mxCell>
        <mxCell id="aXW1kXHaIHh5erUut1oJ-11" value="User" style="shape=umlActor;verticalLabelPosition=bottom;verticalAlign=top;html=1;outlineConnect=0;" vertex="1" parent="1">
          <mxGeometry x="-1590" y="190" width="30" height="60" as="geometry" />
        </mxCell>
      </root>
    </mxGraphModel>
  </diagram>
</mxfile>
